<mxfile host="app.diagrams.net" modified="2021-10-07T07:12:18.050Z" agent="5.0 (Windows)" etag="y6B8fbOGAgmOi_nhCTFC" version="15.4.3" type="github">
  <diagram id="nGhzScu0w4sPOhvbiOy2" name="Page-1">
    <mxGraphModel dx="1038" dy="536" grid="1" gridSize="10" guides="1" tooltips="1" connect="1" arrows="1" fold="1" page="1" pageScale="1" pageWidth="827" pageHeight="1169" math="0" shadow="0">
      <root>
        <mxCell id="0" />
        <mxCell id="1" parent="0" />
        <mxCell id="5d1MTNIgyIdPS4blu5-G-6" style="edgeStyle=orthogonalEdgeStyle;rounded=0;orthogonalLoop=1;jettySize=auto;html=1;exitX=0.5;exitY=0.5;exitDx=0;exitDy=0;exitPerimeter=0;endArrow=none;endFill=0;strokeColor=default;" parent="1" source="5d1MTNIgyIdPS4blu5-G-1" target="5d1MTNIgyIdPS4blu5-G-3" edge="1">
          <mxGeometry relative="1" as="geometry" />
        </mxCell>
        <mxCell id="5d1MTNIgyIdPS4blu5-G-68" style="edgeStyle=orthogonalEdgeStyle;rounded=0;orthogonalLoop=1;jettySize=auto;html=1;exitX=0.5;exitY=0;exitDx=0;exitDy=0;exitPerimeter=0;endArrow=none;endFill=0;strokeColor=default;entryX=1;entryY=0.5;entryDx=0;entryDy=0;" parent="1" source="5d1MTNIgyIdPS4blu5-G-1" target="5d1MTNIgyIdPS4blu5-G-67" edge="1">
          <mxGeometry relative="1" as="geometry">
            <mxPoint x="210" y="170" as="targetPoint" />
            <Array as="points">
              <mxPoint x="115" y="90" />
              <mxPoint x="1520" y="90" />
              <mxPoint x="1520" y="450" />
              <mxPoint x="1500" y="450" />
            </Array>
          </mxGeometry>
        </mxCell>
        <mxCell id="5d1MTNIgyIdPS4blu5-G-1" value="Клиент" style="shape=umlActor;verticalLabelPosition=bottom;verticalAlign=top;html=1;outlineConnect=0;fillColor=#fad7ac;strokeColor=#b46504;" parent="1" vertex="1">
          <mxGeometry x="100" y="205" width="30" height="60" as="geometry" />
        </mxCell>
        <mxCell id="5d1MTNIgyIdPS4blu5-G-10" value="" style="edgeStyle=orthogonalEdgeStyle;rounded=0;orthogonalLoop=1;jettySize=auto;html=1;endArrow=classic;endFill=1;strokeColor=default;" parent="1" source="5d1MTNIgyIdPS4blu5-G-3" target="5d1MTNIgyIdPS4blu5-G-9" edge="1">
          <mxGeometry relative="1" as="geometry" />
        </mxCell>
        <mxCell id="5d1MTNIgyIdPS4blu5-G-3" value="Получение меню" style="rounded=0;whiteSpace=wrap;html=1;fillColor=#fad7ac;strokeColor=#b46504;" parent="1" vertex="1">
          <mxGeometry x="170" y="215" width="110" height="40" as="geometry" />
        </mxCell>
        <mxCell id="5d1MTNIgyIdPS4blu5-G-12" value="" style="edgeStyle=orthogonalEdgeStyle;rounded=0;orthogonalLoop=1;jettySize=auto;html=1;endArrow=classic;endFill=1;strokeColor=default;" parent="1" source="5d1MTNIgyIdPS4blu5-G-9" target="5d1MTNIgyIdPS4blu5-G-11" edge="1">
          <mxGeometry relative="1" as="geometry" />
        </mxCell>
        <mxCell id="5d1MTNIgyIdPS4blu5-G-9" value="Анализ позиций меню (просмотр меню)" style="rounded=0;whiteSpace=wrap;html=1;fillColor=#fad7ac;strokeColor=#b46504;" parent="1" vertex="1">
          <mxGeometry x="310" y="215" width="110" height="40" as="geometry" />
        </mxCell>
        <mxCell id="5d1MTNIgyIdPS4blu5-G-18" style="edgeStyle=orthogonalEdgeStyle;rounded=0;orthogonalLoop=1;jettySize=auto;html=1;exitX=1;exitY=0.5;exitDx=0;exitDy=0;entryX=0;entryY=0.5;entryDx=0;entryDy=0;endArrow=classic;endFill=1;strokeColor=default;" parent="1" source="5d1MTNIgyIdPS4blu5-G-11" target="5d1MTNIgyIdPS4blu5-G-14" edge="1">
          <mxGeometry relative="1" as="geometry" />
        </mxCell>
        <mxCell id="5d1MTNIgyIdPS4blu5-G-11" value="Открытие карточки интересующего блюда" style="rounded=0;whiteSpace=wrap;html=1;fillColor=#fad7ac;strokeColor=#b46504;" parent="1" vertex="1">
          <mxGeometry x="440" y="215" width="110" height="40" as="geometry" />
        </mxCell>
        <mxCell id="5d1MTNIgyIdPS4blu5-G-15" style="edgeStyle=orthogonalEdgeStyle;rounded=0;orthogonalLoop=1;jettySize=auto;html=1;exitX=0.5;exitY=0;exitDx=0;exitDy=0;entryX=0.5;entryY=0;entryDx=0;entryDy=0;endArrow=classic;endFill=1;strokeColor=default;" parent="1" source="5d1MTNIgyIdPS4blu5-G-14" target="5d1MTNIgyIdPS4blu5-G-9" edge="1">
          <mxGeometry relative="1" as="geometry" />
        </mxCell>
        <mxCell id="5d1MTNIgyIdPS4blu5-G-19" style="edgeStyle=orthogonalEdgeStyle;rounded=0;orthogonalLoop=1;jettySize=auto;html=1;exitX=1;exitY=0.5;exitDx=0;exitDy=0;endArrow=classic;endFill=1;strokeColor=default;" parent="1" source="5d1MTNIgyIdPS4blu5-G-14" target="5d1MTNIgyIdPS4blu5-G-16" edge="1">
          <mxGeometry relative="1" as="geometry" />
        </mxCell>
        <mxCell id="5d1MTNIgyIdPS4blu5-G-14" value="" style="rhombus;whiteSpace=wrap;html=1;rounded=0;fillColor=#fad7ac;strokeColor=#b46504;" parent="1" vertex="1">
          <mxGeometry x="570" y="210" width="60" height="50" as="geometry" />
        </mxCell>
        <mxCell id="tXcFCOacGo3yS5a86gHN-16" value="" style="edgeStyle=none;rounded=0;orthogonalLoop=1;jettySize=auto;html=1;" parent="1" source="5d1MTNIgyIdPS4blu5-G-16" target="tXcFCOacGo3yS5a86gHN-14" edge="1">
          <mxGeometry relative="1" as="geometry" />
        </mxCell>
        <mxCell id="5d1MTNIgyIdPS4blu5-G-16" value="Заказ блюда" style="rounded=0;whiteSpace=wrap;html=1;fillColor=#fad7ac;strokeColor=#b46504;" parent="1" vertex="1">
          <mxGeometry x="650" y="215" width="110" height="40" as="geometry" />
        </mxCell>
        <mxCell id="5d1MTNIgyIdPS4blu5-G-62" value="" style="edgeStyle=orthogonalEdgeStyle;rounded=0;orthogonalLoop=1;jettySize=auto;html=1;endArrow=none;endFill=0;strokeColor=default;" parent="1" source="5d1MTNIgyIdPS4blu5-G-20" target="5d1MTNIgyIdPS4blu5-G-21" edge="1">
          <mxGeometry relative="1" as="geometry" />
        </mxCell>
        <mxCell id="5d1MTNIgyIdPS4blu5-G-20" value="Официант" style="shape=umlActor;verticalLabelPosition=bottom;verticalAlign=top;html=1;outlineConnect=0;rounded=0;fillColor=#e1d5e7;strokeColor=#9673a6;" parent="1" vertex="1">
          <mxGeometry x="830" y="100" width="30" height="60" as="geometry" />
        </mxCell>
        <mxCell id="5d1MTNIgyIdPS4blu5-G-24" style="edgeStyle=orthogonalEdgeStyle;rounded=0;orthogonalLoop=1;jettySize=auto;html=1;exitX=1;exitY=0.5;exitDx=0;exitDy=0;endArrow=classic;endFill=1;strokeColor=default;" parent="1" source="5d1MTNIgyIdPS4blu5-G-21" target="5d1MTNIgyIdPS4blu5-G-22" edge="1">
          <mxGeometry relative="1" as="geometry" />
        </mxCell>
        <mxCell id="5d1MTNIgyIdPS4blu5-G-21" value="Формирование заказа" style="rounded=0;whiteSpace=wrap;html=1;fillColor=#e1d5e7;strokeColor=#9673a6;" parent="1" vertex="1">
          <mxGeometry x="790" y="215" width="110" height="40" as="geometry" />
        </mxCell>
        <mxCell id="5d1MTNIgyIdPS4blu5-G-27" style="edgeStyle=orthogonalEdgeStyle;rounded=0;orthogonalLoop=1;jettySize=auto;html=1;exitX=1;exitY=0.5;exitDx=0;exitDy=0;endArrow=classic;endFill=1;strokeColor=default;" parent="1" source="5d1MTNIgyIdPS4blu5-G-22" target="5d1MTNIgyIdPS4blu5-G-25" edge="1">
          <mxGeometry relative="1" as="geometry" />
        </mxCell>
        <mxCell id="5i7k2K3RuOkxoXRuPaDP-1" style="edgeStyle=orthogonalEdgeStyle;rounded=0;orthogonalLoop=1;jettySize=auto;html=1;" edge="1" parent="1" source="5d1MTNIgyIdPS4blu5-G-22">
          <mxGeometry relative="1" as="geometry">
            <mxPoint x="975" y="310" as="targetPoint" />
          </mxGeometry>
        </mxCell>
        <mxCell id="5d1MTNIgyIdPS4blu5-G-22" value="Открытие счёта" style="rounded=0;whiteSpace=wrap;html=1;fillColor=#e1d5e7;strokeColor=#9673a6;" parent="1" vertex="1">
          <mxGeometry x="920" y="215" width="110" height="40" as="geometry" />
        </mxCell>
        <mxCell id="5d1MTNIgyIdPS4blu5-G-28" style="edgeStyle=orthogonalEdgeStyle;rounded=0;orthogonalLoop=1;jettySize=auto;html=1;exitX=1;exitY=0.5;exitDx=0;exitDy=0;endArrow=classic;endFill=1;strokeColor=default;" parent="1" source="5d1MTNIgyIdPS4blu5-G-25" target="5d1MTNIgyIdPS4blu5-G-26" edge="1">
          <mxGeometry relative="1" as="geometry" />
        </mxCell>
        <mxCell id="tXcFCOacGo3yS5a86gHN-19" value="" style="edgeStyle=orthogonalEdgeStyle;rounded=0;orthogonalLoop=1;jettySize=auto;html=1;" parent="1" source="5d1MTNIgyIdPS4blu5-G-25" target="tXcFCOacGo3yS5a86gHN-18" edge="1">
          <mxGeometry relative="1" as="geometry" />
        </mxCell>
        <mxCell id="5d1MTNIgyIdPS4blu5-G-25" value="Передача заказа на кухню" style="rounded=0;whiteSpace=wrap;html=1;fillColor=#e1d5e7;strokeColor=#9673a6;" parent="1" vertex="1">
          <mxGeometry x="1050" y="215" width="110" height="40" as="geometry" />
        </mxCell>
        <mxCell id="5d1MTNIgyIdPS4blu5-G-52" style="edgeStyle=none;rounded=0;orthogonalLoop=1;jettySize=auto;html=1;exitX=1;exitY=0.5;exitDx=0;exitDy=0;endArrow=classic;endFill=1;strokeColor=default;" parent="1" source="5d1MTNIgyIdPS4blu5-G-26" target="5d1MTNIgyIdPS4blu5-G-55" edge="1">
          <mxGeometry relative="1" as="geometry">
            <mxPoint x="1310" y="235" as="targetPoint" />
            <Array as="points">
              <mxPoint x="1320" y="150" />
            </Array>
          </mxGeometry>
        </mxCell>
        <mxCell id="5d1MTNIgyIdPS4blu5-G-26" value="Занесение клиента в электронную очередь&amp;nbsp;" style="rounded=0;whiteSpace=wrap;html=1;fillColor=#f8cecc;strokeColor=#b85450;" parent="1" vertex="1">
          <mxGeometry x="1180" y="215" width="110" height="40" as="geometry" />
        </mxCell>
        <mxCell id="5d1MTNIgyIdPS4blu5-G-65" style="edgeStyle=orthogonalEdgeStyle;rounded=0;orthogonalLoop=1;jettySize=auto;html=1;entryX=0.5;entryY=0;entryDx=0;entryDy=0;endArrow=classic;endFill=1;strokeColor=default;" parent="1" source="5d1MTNIgyIdPS4blu5-G-54" target="5d1MTNIgyIdPS4blu5-G-63" edge="1">
          <mxGeometry relative="1" as="geometry">
            <mxPoint x="1445" y="275" as="sourcePoint" />
          </mxGeometry>
        </mxCell>
        <mxCell id="5d1MTNIgyIdPS4blu5-G-54" value="Получение уведомления о готовности заказа" style="rounded=0;whiteSpace=wrap;html=1;fillColor=#e1d5e7;strokeColor=#9673a6;" parent="1" vertex="1">
          <mxGeometry x="1390" y="215" width="110" height="55" as="geometry" />
        </mxCell>
        <mxCell id="5d1MTNIgyIdPS4blu5-G-60" style="edgeStyle=orthogonalEdgeStyle;rounded=0;orthogonalLoop=1;jettySize=auto;html=1;exitX=0;exitY=0.5;exitDx=0;exitDy=0;endArrow=classic;endFill=1;strokeColor=default;" parent="1" source="5d1MTNIgyIdPS4blu5-G-55" target="5d1MTNIgyIdPS4blu5-G-59" edge="1">
          <mxGeometry relative="1" as="geometry" />
        </mxCell>
        <mxCell id="5d1MTNIgyIdPS4blu5-G-55" value="Редактирование заказа" style="rounded=0;whiteSpace=wrap;html=1;fillColor=#e1d5e7;strokeColor=#9673a6;" parent="1" vertex="1">
          <mxGeometry x="1180" y="130" width="110" height="40" as="geometry" />
        </mxCell>
        <mxCell id="5d1MTNIgyIdPS4blu5-G-61" style="edgeStyle=orthogonalEdgeStyle;rounded=0;orthogonalLoop=1;jettySize=auto;html=1;exitX=0.5;exitY=1;exitDx=0;exitDy=0;entryX=0.5;entryY=0;entryDx=0;entryDy=0;endArrow=classic;endFill=1;strokeColor=default;" parent="1" source="5d1MTNIgyIdPS4blu5-G-59" target="5d1MTNIgyIdPS4blu5-G-25" edge="1">
          <mxGeometry relative="1" as="geometry" />
        </mxCell>
        <mxCell id="5d1MTNIgyIdPS4blu5-G-59" value="Редактирование открытого счета" style="rounded=0;whiteSpace=wrap;html=1;fillColor=#e1d5e7;strokeColor=#9673a6;" parent="1" vertex="1">
          <mxGeometry x="1050" y="130" width="110" height="40" as="geometry" />
        </mxCell>
        <mxCell id="5d1MTNIgyIdPS4blu5-G-66" style="edgeStyle=orthogonalEdgeStyle;rounded=0;orthogonalLoop=1;jettySize=auto;html=1;exitX=0.5;exitY=1;exitDx=0;exitDy=0;entryX=0.5;entryY=0;entryDx=0;entryDy=0;endArrow=classic;endFill=1;strokeColor=default;" parent="1" source="5d1MTNIgyIdPS4blu5-G-63" target="5d1MTNIgyIdPS4blu5-G-64" edge="1">
          <mxGeometry relative="1" as="geometry" />
        </mxCell>
        <mxCell id="5d1MTNIgyIdPS4blu5-G-63" value="Получение готового заказа на кухне" style="rounded=0;whiteSpace=wrap;html=1;fillColor=#e1d5e7;strokeColor=#9673a6;" parent="1" vertex="1">
          <mxGeometry x="1390" y="290" width="110" height="40" as="geometry" />
        </mxCell>
        <mxCell id="5d1MTNIgyIdPS4blu5-G-64" value="Обслуживание клиента" style="rounded=0;whiteSpace=wrap;html=1;fillColor=#e1d5e7;strokeColor=#9673a6;" parent="1" vertex="1">
          <mxGeometry x="1390" y="350" width="110" height="40" as="geometry" />
        </mxCell>
        <mxCell id="5d1MTNIgyIdPS4blu5-G-70" style="edgeStyle=orthogonalEdgeStyle;rounded=0;orthogonalLoop=1;jettySize=auto;html=1;exitX=0;exitY=0.5;exitDx=0;exitDy=0;endArrow=classic;endFill=1;strokeColor=default;" parent="1" source="5d1MTNIgyIdPS4blu5-G-67" target="5d1MTNIgyIdPS4blu5-G-69" edge="1">
          <mxGeometry relative="1" as="geometry" />
        </mxCell>
        <mxCell id="5d1MTNIgyIdPS4blu5-G-67" value="Оплата счета" style="rounded=0;whiteSpace=wrap;html=1;fillColor=#fad7ac;strokeColor=#b46504;" parent="1" vertex="1">
          <mxGeometry x="1390" y="440" width="110" height="40" as="geometry" />
        </mxCell>
        <mxCell id="tXcFCOacGo3yS5a86gHN-28" value="" style="edgeStyle=orthogonalEdgeStyle;rounded=0;orthogonalLoop=1;jettySize=auto;html=1;" parent="1" source="5d1MTNIgyIdPS4blu5-G-69" target="tXcFCOacGo3yS5a86gHN-27" edge="1">
          <mxGeometry relative="1" as="geometry" />
        </mxCell>
        <mxCell id="5d1MTNIgyIdPS4blu5-G-69" value="Оставление отзыва" style="rounded=0;whiteSpace=wrap;html=1;fillColor=#fad7ac;strokeColor=#b46504;" parent="1" vertex="1">
          <mxGeometry x="1250" y="440" width="110" height="40" as="geometry" />
        </mxCell>
        <mxCell id="5d1MTNIgyIdPS4blu5-G-78" value="" style="edgeStyle=orthogonalEdgeStyle;rounded=0;orthogonalLoop=1;jettySize=auto;html=1;endArrow=none;endFill=0;strokeColor=default;" parent="1" source="5d1MTNIgyIdPS4blu5-G-71" edge="1">
          <mxGeometry relative="1" as="geometry">
            <mxPoint x="1145" y="480" as="targetPoint" />
          </mxGeometry>
        </mxCell>
        <mxCell id="5d1MTNIgyIdPS4blu5-G-91" style="rounded=0;orthogonalLoop=1;jettySize=auto;html=1;exitX=0;exitY=0.3333333333333333;exitDx=0;exitDy=0;exitPerimeter=0;endArrow=none;endFill=0;strokeColor=default;" parent="1" source="5d1MTNIgyIdPS4blu5-G-71" target="5d1MTNIgyIdPS4blu5-G-72" edge="1">
          <mxGeometry relative="1" as="geometry" />
        </mxCell>
        <mxCell id="5d1MTNIgyIdPS4blu5-G-71" value="Менеджер" style="shape=umlActor;verticalLabelPosition=bottom;verticalAlign=top;html=1;outlineConnect=0;rounded=0;fillColor=#fad9d5;strokeColor=#ae4132;" parent="1" vertex="1">
          <mxGeometry x="1130" y="580" width="30" height="60" as="geometry" />
        </mxCell>
        <mxCell id="5d1MTNIgyIdPS4blu5-G-72" value="Создание списка персонала на текущую смену" style="rounded=0;whiteSpace=wrap;html=1;fillColor=#fad9d5;strokeColor=#ae4132;fontStyle=1" parent="1" vertex="1">
          <mxGeometry x="960" y="510" width="110" height="40" as="geometry" />
        </mxCell>
        <mxCell id="5d1MTNIgyIdPS4blu5-G-95" style="edgeStyle=none;rounded=0;orthogonalLoop=1;jettySize=auto;html=1;exitX=0;exitY=0.5;exitDx=0;exitDy=0;endArrow=classic;endFill=1;strokeColor=default;" parent="1" source="5d1MTNIgyIdPS4blu5-G-73" target="5d1MTNIgyIdPS4blu5-G-92" edge="1">
          <mxGeometry relative="1" as="geometry" />
        </mxCell>
        <mxCell id="tXcFCOacGo3yS5a86gHN-33" value="" style="edgeStyle=orthogonalEdgeStyle;rounded=0;orthogonalLoop=1;jettySize=auto;html=1;" parent="1" source="5d1MTNIgyIdPS4blu5-G-73" target="tXcFCOacGo3yS5a86gHN-32" edge="1">
          <mxGeometry relative="1" as="geometry" />
        </mxCell>
        <mxCell id="5d1MTNIgyIdPS4blu5-G-73" value="Заказ продуктов у поставщика" style="rounded=0;whiteSpace=wrap;html=1;fillColor=#fad9d5;strokeColor=#ae4132;fontStyle=1" parent="1" vertex="1">
          <mxGeometry x="820" y="430" width="110" height="40" as="geometry" />
        </mxCell>
        <mxCell id="5d1MTNIgyIdPS4blu5-G-82" style="edgeStyle=orthogonalEdgeStyle;rounded=0;orthogonalLoop=1;jettySize=auto;html=1;exitX=0;exitY=0.5;exitDx=0;exitDy=0;entryX=1;entryY=0.5;entryDx=0;entryDy=0;endArrow=classic;endFill=1;strokeColor=default;" parent="1" source="5d1MTNIgyIdPS4blu5-G-79" target="5d1MTNIgyIdPS4blu5-G-73" edge="1">
          <mxGeometry relative="1" as="geometry" />
        </mxCell>
        <mxCell id="5d1MTNIgyIdPS4blu5-G-79" value="Запрос на кухню о недостающих продуктах" style="rounded=0;whiteSpace=wrap;html=1;fillColor=#fad9d5;strokeColor=#ae4132;" parent="1" vertex="1">
          <mxGeometry x="950" y="430" width="120" height="40" as="geometry" />
        </mxCell>
        <mxCell id="5d1MTNIgyIdPS4blu5-G-94" style="edgeStyle=none;rounded=0;orthogonalLoop=1;jettySize=auto;html=1;exitX=0;exitY=0.5;exitDx=0;exitDy=0;endArrow=classic;endFill=1;strokeColor=default;" parent="1" source="5d1MTNIgyIdPS4blu5-G-83" target="5d1MTNIgyIdPS4blu5-G-79" edge="1">
          <mxGeometry relative="1" as="geometry" />
        </mxCell>
        <mxCell id="5d1MTNIgyIdPS4blu5-G-83" value="Формирование рейтинга блюд и качества обслуживания" style="rounded=0;whiteSpace=wrap;html=1;fillColor=#fad9d5;strokeColor=#ae4132;" parent="1" vertex="1">
          <mxGeometry x="1090" y="420" width="110" height="60" as="geometry" />
        </mxCell>
        <mxCell id="5d1MTNIgyIdPS4blu5-G-97" style="edgeStyle=none;rounded=0;orthogonalLoop=1;jettySize=auto;html=1;exitX=0.5;exitY=1;exitDx=0;exitDy=0;endArrow=classic;endFill=1;strokeColor=default;" parent="1" source="5d1MTNIgyIdPS4blu5-G-92" target="5d1MTNIgyIdPS4blu5-G-96" edge="1">
          <mxGeometry relative="1" as="geometry" />
        </mxCell>
        <mxCell id="5d1MTNIgyIdPS4blu5-G-92" value="Получение продуктов&amp;nbsp;" style="rounded=0;whiteSpace=wrap;html=1;fillColor=#fad9d5;strokeColor=#ae4132;fontStyle=1" parent="1" vertex="1">
          <mxGeometry x="683" y="430" width="120" height="40" as="geometry" />
        </mxCell>
        <mxCell id="5d1MTNIgyIdPS4blu5-G-96" value="Подсчет прибыли R-Keeper" style="rounded=0;whiteSpace=wrap;html=1;fillColor=#fad9d5;strokeColor=#ae4132;fontStyle=1" parent="1" vertex="1">
          <mxGeometry x="683" y="490" width="120" height="40" as="geometry" />
        </mxCell>
        <mxCell id="tXcFCOacGo3yS5a86gHN-4" value="" style="edgeStyle=orthogonalEdgeStyle;rounded=0;orthogonalLoop=1;jettySize=auto;html=1;" parent="1" source="tXcFCOacGo3yS5a86gHN-1" target="5d1MTNIgyIdPS4blu5-G-3" edge="1">
          <mxGeometry relative="1" as="geometry" />
        </mxCell>
        <mxCell id="tXcFCOacGo3yS5a86gHN-1" value="Объекты меню" style="html=1;dashed=0;whitespace=wrap;shape=partialRectangle;right=0;" parent="1" vertex="1">
          <mxGeometry x="170" y="310" width="110" height="30" as="geometry" />
        </mxCell>
        <mxCell id="tXcFCOacGo3yS5a86gHN-11" style="rounded=0;orthogonalLoop=1;jettySize=auto;html=1;entryX=0.5;entryY=1;entryDx=0;entryDy=0;" parent="1" source="tXcFCOacGo3yS5a86gHN-8" target="5d1MTNIgyIdPS4blu5-G-11" edge="1">
          <mxGeometry relative="1" as="geometry" />
        </mxCell>
        <mxCell id="tXcFCOacGo3yS5a86gHN-8" value="Ингредиенты блюда" style="html=1;dashed=0;whitespace=wrap;shape=partialRectangle;right=0;" parent="1" vertex="1">
          <mxGeometry x="360" y="310" width="119" height="30" as="geometry" />
        </mxCell>
        <mxCell id="tXcFCOacGo3yS5a86gHN-13" style="edgeStyle=none;rounded=0;orthogonalLoop=1;jettySize=auto;html=1;entryX=0.571;entryY=1.008;entryDx=0;entryDy=0;entryPerimeter=0;" parent="1" source="tXcFCOacGo3yS5a86gHN-9" target="5d1MTNIgyIdPS4blu5-G-11" edge="1">
          <mxGeometry relative="1" as="geometry" />
        </mxCell>
        <mxCell id="tXcFCOacGo3yS5a86gHN-9" value="Фотографии блюда" style="html=1;dashed=0;whitespace=wrap;shape=partialRectangle;right=0;" parent="1" vertex="1">
          <mxGeometry x="521" y="310" width="109" height="30" as="geometry" />
        </mxCell>
        <mxCell id="tXcFCOacGo3yS5a86gHN-17" style="edgeStyle=orthogonalEdgeStyle;rounded=0;orthogonalLoop=1;jettySize=auto;html=1;entryX=0.5;entryY=1;entryDx=0;entryDy=0;" parent="1" source="tXcFCOacGo3yS5a86gHN-14" target="5d1MTNIgyIdPS4blu5-G-21" edge="1">
          <mxGeometry relative="1" as="geometry" />
        </mxCell>
        <mxCell id="tXcFCOacGo3yS5a86gHN-14" value="Журнал запросов&lt;br&gt;на обслуживание" style="html=1;dashed=0;whitespace=wrap;shape=partialRectangle;right=0;" parent="1" vertex="1">
          <mxGeometry x="650" y="310" width="109" height="30" as="geometry" />
        </mxCell>
        <mxCell id="tXcFCOacGo3yS5a86gHN-15" style="edgeStyle=none;rounded=0;orthogonalLoop=1;jettySize=auto;html=1;exitX=0.5;exitY=0;exitDx=0;exitDy=0;" parent="1" source="tXcFCOacGo3yS5a86gHN-9" target="tXcFCOacGo3yS5a86gHN-9" edge="1">
          <mxGeometry relative="1" as="geometry" />
        </mxCell>
        <mxCell id="tXcFCOacGo3yS5a86gHN-23" style="edgeStyle=orthogonalEdgeStyle;rounded=0;orthogonalLoop=1;jettySize=auto;html=1;entryX=0.5;entryY=1;entryDx=0;entryDy=0;" parent="1" source="tXcFCOacGo3yS5a86gHN-18" target="5d1MTNIgyIdPS4blu5-G-26" edge="1">
          <mxGeometry relative="1" as="geometry" />
        </mxCell>
        <mxCell id="tXcFCOacGo3yS5a86gHN-26" style="edgeStyle=orthogonalEdgeStyle;rounded=0;orthogonalLoop=1;jettySize=auto;html=1;entryX=0;entryY=0.75;entryDx=0;entryDy=0;" parent="1" source="tXcFCOacGo3yS5a86gHN-18" target="5d1MTNIgyIdPS4blu5-G-54" edge="1">
          <mxGeometry relative="1" as="geometry">
            <Array as="points">
              <mxPoint x="1350" y="325" />
              <mxPoint x="1350" y="256" />
            </Array>
          </mxGeometry>
        </mxCell>
        <mxCell id="tXcFCOacGo3yS5a86gHN-18" value="Журнал &lt;br&gt;электронной очереди" style="html=1;dashed=0;whitespace=wrap;shape=partialRectangle;right=0;" parent="1" vertex="1">
          <mxGeometry x="1115.5" y="310" width="119" height="30" as="geometry" />
        </mxCell>
        <mxCell id="tXcFCOacGo3yS5a86gHN-29" style="edgeStyle=orthogonalEdgeStyle;rounded=0;orthogonalLoop=1;jettySize=auto;html=1;entryX=0.627;entryY=0.983;entryDx=0;entryDy=0;entryPerimeter=0;" parent="1" source="tXcFCOacGo3yS5a86gHN-27" target="5d1MTNIgyIdPS4blu5-G-83" edge="1">
          <mxGeometry relative="1" as="geometry" />
        </mxCell>
        <mxCell id="tXcFCOacGo3yS5a86gHN-27" value="Журнал отзывов" style="html=1;dashed=0;whitespace=wrap;shape=partialRectangle;right=0;" parent="1" vertex="1">
          <mxGeometry x="1250" y="520" width="110" height="30" as="geometry" />
        </mxCell>
        <mxCell id="tXcFCOacGo3yS5a86gHN-31" style="edgeStyle=orthogonalEdgeStyle;rounded=0;orthogonalLoop=1;jettySize=auto;html=1;exitX=0.5;exitY=0;exitDx=0;exitDy=0;" parent="1" source="tXcFCOacGo3yS5a86gHN-30" target="5d1MTNIgyIdPS4blu5-G-72" edge="1">
          <mxGeometry relative="1" as="geometry" />
        </mxCell>
        <mxCell id="tXcFCOacGo3yS5a86gHN-30" value="График смен &lt;br&gt;работников" style="html=1;dashed=0;whitespace=wrap;shape=partialRectangle;right=0;fontStyle=1" parent="1" vertex="1">
          <mxGeometry x="955.5" y="590" width="119" height="30" as="geometry" />
        </mxCell>
        <mxCell id="tXcFCOacGo3yS5a86gHN-32" value="Журнал заказов" style="html=1;dashed=0;whitespace=wrap;shape=partialRectangle;right=0;fillColor=#f8cecc;strokeColor=#b85450;" parent="1" vertex="1">
          <mxGeometry x="815.5" y="370" width="119" height="30" as="geometry" />
        </mxCell>
        <mxCell id="tXcFCOacGo3yS5a86gHN-35" value="" style="edgeStyle=orthogonalEdgeStyle;rounded=0;orthogonalLoop=1;jettySize=auto;html=1;" parent="1" source="tXcFCOacGo3yS5a86gHN-34" target="5d1MTNIgyIdPS4blu5-G-96" edge="1">
          <mxGeometry relative="1" as="geometry" />
        </mxCell>
        <mxCell id="tXcFCOacGo3yS5a86gHN-34" value="Касса" style="html=1;dashed=0;whitespace=wrap;shape=partialRectangle;right=0;" parent="1" vertex="1">
          <mxGeometry x="521" y="495" width="119" height="30" as="geometry" />
        </mxCell>
      </root>
    </mxGraphModel>
  </diagram>
</mxfile>
